# xmcd
#
# Track frame offsets: 
#        150
#        11295
#        22757
#        33810
#        45322
#        57447
#        68537
#        80045
#        93635
#        105267
#        120350
#        130802
#        142422
#        152952
#        163897
#        174147
#        184772
#        198720
#        209887
#        222190
#        232790
#        244840
#        256657
#        269212
#
# Disc length: 3739 seconds
#
# Revision: 2
# Processed by: cddbd v1.5.2PL0 Copyright (c) Steve Scherf et al.
# Submitted via: ExactAudioCopy v0.95b2
#
DISCID=4c0e9918
DTITLE=Bob Wills - Encore Disc 1
DYEAR=1900
DGENRE=Country
TTITLE0=The Image of Me
TTITLE1=What's the Matter with the Mill?
TTITLE2=Dry Your Darlin' Eyes
TTITLE3=Goodbye Liza Jane
TTITLE4=Heart to Heart Talk
TTITLE5=It May Be Too Late
TTITLE6=Take Me Back to Tulsa
TTITLE7=The Kind of Love I Can't Forget
TTITLE8=Time Changes Everything
TTITLE9=Dusty Skies
TTITLE10=Stay a Little Longer
TTITLE11=Keeper of My Heart
TTITLE12=San Antonio Rose
TTITLE13=Spanish Too Step
TTITLE14=Maiden's Prayer
TTITLE15=Ida Red
TTITLE16=Goodnight Little Sweetheart
TTITLE17=Silver Bells
TTITLE18=Trouble in Mind
TTITLE19=Li'l Liza Jane
TTITLE20=Wabash Blues
TTITLE21=Right or Wrong
TTITLE22=Crying Won't Make Me Stay
TTITLE23=Playboy Medley
EXTD=
EXTT0=
EXTT1=
EXTT2=
EXTT3=
EXTT4=
EXTT5=
EXTT6=
EXTT7=
EXTT8=
EXTT9=
EXTT10=
EXTT11=
EXTT12=
EXTT13=
EXTT14=
EXTT15=
EXTT16=
EXTT17=
EXTT18=
EXTT19=
EXTT20=
EXTT21=
EXTT22=
EXTT23=
PLAYORDER=
